<svg id="Layer_1" data-name="Layer 1" xmlns="http://www.w3.org/2000/svg" viewBox="0 0 483.02 88.92"><defs><style>.cls-1,.cls-3{fill:#fff;}.cls-2{isolation:isolate;}.cls-3{stroke:#0068b3;stroke-miterlimit:10;stroke-width:0.5px;}</style></defs><circle class="cls-1" cx="84.62" cy="10.98" r="10.9"/><path class="cls-1" d="M1,.08c1.2.4,80.5,27.2,81.2,27.5,1.1.4,1.5,1.1-.1,2.7-1.9,1.7-58.1,53.8-59.2,54.9-.8.8-3.6.2-1.8-2.8s37.4-49.6,37.4-49.6S1,1.68.52,1.28C-.28.88-.18-.32,1,.08Z"/><path class="cls-1" d="M83.82,34.08c1.1.9,11.9,9.7,11.9,20.3s-5.7,18.2-24.2,25.4-27.8,8.8-29.3,9.1c-1.3.3-1.7-1.2-.3-1.8,2.2-1,35.7-13.5,41.3-25.8s-.5-23.7-1-25.7C81.92,34.08,83.12,33.48,83.82,34.08Z"/><g class="cls-2"><path class="cls-1" d="M130.32,32.48c9.2,0,13.5,4.7,11.5,14s-8.2,14-17.4,14h-7.6l6-28.1h7.5Zm-4.8,25.8c7.9,0,12.1-4.6,13.6-11.7,1.8-8.3-2.3-11.9-10.3-11.7h-4l-5,23.4Z"/></g><g class="cls-2"><path class="cls-1" d="M145.52,60.58H143l6-28.1h9.2c2.4,0,4.4.2,6.3,1.5,1.7,1.2,2.2,3.2,1.6,5.9-.6,3-3.2,5.2-6.7,6V46c3.5.6,3.7,3,3.4,6.3-.5,4.5-1.1,6.6-.3,8.4h-2.9a19,19,0,0,1,.3-5.8c.8-6.4.6-7.5-4.5-7.5h-7Zm8.7-15.7c3.6,0,8.1-.2,9.1-5,1.1-5.4-4-5-6.7-5h-5.7l-2.1,10Z"/><path class="cls-1" d="M167.52,60.58l6-28.2H176l-6,28.2Z"/><path class="cls-1" d="M185.12,58.08h0l14.4-25.5H202l-16.1,28.1H183l-4.3-28.1h2.8Z"/></g><g class="cls-2"><path class="cls-1" d="M198.72,60.58l6-28.1h16.7l-.5,2.3h-14.1l-2.1,10.1h13.6l-.5,2.3h-13.6l-2.3,11h14.7l-.5,2.3h-17.4Z"/></g><g class="cls-2"><path class="cls-1" d="M232.22,32.48h9.5l5.1,28.1H238l-.7-5.6H226l-3.1,5.6h-7.8Zm4.4,17.3L235.52,38h-.1L229,49.78Z"/><path class="cls-1" d="M254.82,32.48H266c3.5,0,7.2,0,9.2,2.3a5.3,5.3,0,0,1,1.1,4.8c-1.1,5-5.9,6-7.3,6.4v.1c1.7.3,6.5,1.2,5.3,7a9.18,9.18,0,0,1-5.2,6.4c-2.5,1.2-5.3,1.2-7.8,1.2h-12.4Zm2.7,23h4.3c.9,0,4,0,4.7-3.3s-2.5-3.4-3.5-3.4h-4.1Zm2.4-11.6h3.7a7.47,7.47,0,0,0,2.8-.3,4.15,4.15,0,0,0,2.1-2.7,2.51,2.51,0,0,0-.6-2.5,3.1,3.1,0,0,0-2.4-.7h-4.2Z"/><path class="cls-1" d="M282,32.48h8l-6,28.1h-8Z"/></g><g class="cls-2"><path class="cls-1" d="M294.52,32.48h7.9L297.62,55h12.6l-1.2,5.5h-20.5Z"/></g><g class="cls-2"><path class="cls-1" d="M317.92,32.48h8l-6,28.1h-8Z"/></g><g class="cls-2"><path class="cls-1" d="M335.52,38.08H327l1.2-5.6h25.1l-1.2,5.6h-8.7l-4.8,22.5h-7.8Z"/><path class="cls-1" d="M362.92,32.48l3.6,11.8,8.8-11.8h8l-14.8,18.2-2.1,9.9h-7.9l2.2-10.3-6.9-17.8Z"/></g><polygon class="cls-1" points="414.72 50.78 418.42 50.78 418.42 44.68 430.72 44.68 430.72 40.98 418.42 40.98 418.42 36.78 431.42 36.78 431.42 33.18 414.72 33.18 414.72 50.78"/><path class="cls-1" d="M449.12,43.78a6,6,0,1,1-11.4-3.6,6,6,0,0,1,11.4,0h3.7a9.67,9.67,0,1,0,0,3.6Z"/><polygon class="cls-1" points="463.22 31.78 452.22 50.78 456.42 50.78 463.22 38.98 470.12 50.78 474.32 50.78 463.22 31.78"/><path class="cls-1" d="M435.32,56.88h-.4v3.3h2.2v-.3h-1.9v-3Zm-1.5,1.8a1.14,1.14,0,0,0-.8-.3c-.2,0-.3-.1-.4-.1s-.2-.1-.3-.1-.1-.1-.1-.2v-.2h0a.52.52,0,0,1,.2-.4.76.76,0,0,1,.5-.2,1.28,1.28,0,0,1,1,.4l.2-.3c-.2-.1-.3-.2-.5-.3a1.27,1.27,0,0,0-.6-.1.6.6,0,0,0-.4.1c-.1,0-.2.1-.3.2s-.2.2-.2.3-.1.2-.1.4h0a.76.76,0,0,0,.1.4c0,.1.1.2.2.3a.52.52,0,0,0,.4.2c.2.1.3.1.5.2s.3.1.4.1.2.1.3.1.1.1.1.2v.2h0a.52.52,0,0,1-.2.4c-.2.1-.3.2-.5.2a1.27,1.27,0,0,1-.6-.1,2.19,2.19,0,0,1-.5-.3l-.2.3a2.09,2.09,0,0,0,.6.4,1.7,1.7,0,0,0,.7.1.9.9,0,0,0,.5-.1c.1,0,.2-.1.4-.2a.91.91,0,0,0,.3-.7h0c-.4-.5-.5-.7-.7-.9m-4-.1-1.1-1.7h-.4l1.4,2v1.3h.3v-1.3l1.4-2H431Zm-2.3.1c.1,0,.2-.1.3-.2s.1-.2.2-.3.1-.2.1-.4h0a.6.6,0,0,0-.1-.4c0-.1-.1-.2-.2-.3a.52.52,0,0,0-.4-.2,1.09,1.09,0,0,0-.5-.1h-1.4v3.3h.4v-1.3h.9l1,1.3h.5l-1-1.4c0,.1.1.1.2,0m-1.7-.1v-1.4h1a1.42,1.42,0,0,1,.6.2.76.76,0,0,1,.2.5h0a.37.37,0,0,1-.1.3.22.22,0,0,1-.2.2.37.37,0,0,1-.3.1h-.3ZM409,60.18h.4v-3.4H409Zm2.6-3.3-1.5,3.4h.4l.4-.9h1.8l.4.9h.4l-1.5-3.4ZM411,59l.8-1.7.7,1.7Zm-5.4,1.2h.4v-1.5h1.8v-.3H406v-1.2h2v-.3h-2.4Zm7.7-3h1.1v3h.4v-3h1.1v-.3h-2.6Zm10.6,1.2H422v-1.5h-.4v3.3h.4v-1.5h1.9v1.5h.4v-3.3h-.4Zm-3.9,1.4a1.27,1.27,0,0,1-.6.1.9.9,0,0,1-.5-.1,1.38,1.38,0,0,1-.4-.3c-.1-.1-.2-.3-.3-.4a1.09,1.09,0,0,1-.1-.5h0a.75.75,0,0,1,.1-.5,1.77,1.77,0,0,1,.7-.7.9.9,0,0,1,.5-.1,1.27,1.27,0,0,1,.6.1c.2.1.3.2.5.3l.3-.3-.3-.2c-.1-.1-.2-.1-.3-.2s-.2-.1-.3-.1h-.4a1.7,1.7,0,0,0-.7.1,1,1,0,0,0-.5.4c-.1.2-.3.3-.4.5a1.48,1.48,0,0,0-.1.7h0a1.7,1.7,0,0,0,.1.7,2.9,2.9,0,0,0,.9.9,1.48,1.48,0,0,0,.7.1h.4c.1,0,.2-.1.3-.1s.2-.1.3-.2.2-.2.3-.2l-.2-.2c-.3.1-.4.2-.6.2m33.5-2.5h1.1v3h.4v-3h1.1V57h-2.6Zm19.3,3h.4v-3.4h-.4Zm-5.2-2.9a1,1,0,0,0-.5-.4,1.48,1.48,0,0,0-.7-.1,1.7,1.7,0,0,0-.7.1,1,1,0,0,0-.5.4c-.1.2-.3.3-.3.5a1.48,1.48,0,0,0-.1.7h0a2,2,0,0,0,.1.7,2.19,2.19,0,0,0,.3.5,1,1,0,0,0,.5.4,1.48,1.48,0,0,0,.7.1,1.7,1.7,0,0,0,.7-.1,1,1,0,0,0,.5-.4c.1-.2.3-.3.3-.5a1.48,1.48,0,0,0,.1-.7h0a2,2,0,0,0-.1-.7.91.91,0,0,0-.3-.5m.1,1.2a.75.75,0,0,1-.1.5,1.77,1.77,0,0,1-.7.7,1.7,1.7,0,0,1-1,0,1.21,1.21,0,0,1-.7-.7,1.09,1.09,0,0,1-.1-.5h0a.75.75,0,0,1,.1-.5,1.38,1.38,0,0,1,.3-.4c.1-.1.3-.2.4-.3a1.7,1.7,0,0,1,1,0,1.38,1.38,0,0,1,.4.3c.1.1.2.3.3.4a1.09,1.09,0,0,1,.1.5Zm3.9.2-.2-.2c-.1,0-.2-.1-.3-.1l.2-.1c.1,0,.1-.1.2-.2s.1-.1.1-.2v-.3h0a.76.76,0,0,0-.2-.5l-.3-.3c-.2,0-.3-.1-.5-.1h-1.4v3.3h1.5a.9.9,0,0,0,.5-.1.76.76,0,0,0,.4-.2c.1-.1.2-.2.2-.3a.6.6,0,0,0,.1-.4h0a.37.37,0,0,0-.1-.3c-.1.2-.2.1-.2,0m-2.1-1.5h1c.2,0,.4,0,.5.2a.52.52,0,0,1,.2.4h0a.52.52,0,0,1-.2.4,1.69,1.69,0,0,1-.5.2h-1Zm1.9,2a.52.52,0,0,1-.2.4,1.42,1.42,0,0,1-.6.2h-1.1v-1.2h1c.2,0,.5,0,.6.2.2,0,.2.2.3.4Zm3.3-2.4h-.4v3.3h2.2v-.3h-1.9v-3Zm3,1.9h1.8v-.3h-1.8v-1.2h2V57h-2.3v3.3h2.4V60h-2Zm5,0a1.14,1.14,0,0,0-.8-.3c-.2,0-.3-.1-.5-.1s-.2-.1-.3-.1-.1-.1-.1-.2v-.2h0a.52.52,0,0,1,.2-.4c.2-.1.3-.2.5-.2a1.09,1.09,0,0,1,.9.4l.2-.3c-.2-.1-.3-.2-.5-.3a1.27,1.27,0,0,0-.6-.1.6.6,0,0,0-.4.1c-.1,0-.2.1-.4.2s-.2.2-.2.3-.1.2-.1.4h0a.76.76,0,0,0,.1.4c0,.1.1.2.2.3s.2.2.3.2.3.1.5.2.3.1.4.1.2.1.3.1.1.1.1.2v.2h0a.52.52,0,0,1-.2.4c-.2.1-.3.2-.5.2a1.27,1.27,0,0,1-.6-.1,2.19,2.19,0,0,1-.5-.3l-.2.3a2.09,2.09,0,0,0,.6.4,1.7,1.7,0,0,0,.7.1.9.9,0,0,0,.5-.1c.1,0,.2-.1.4-.2s.2-.2.2-.3a.6.6,0,0,0,.1-.4h0c0-.6-.1-.8-.3-.9m-20.6,0-1.1-1.9h-.4v3.3h.4v-2.7l1.2,1.8h0l1.2-1.8v2.7h.4v-3.3h-.4Zm-23.9,0H440v-.3h-1.8v-1.2h2V57h-2.3v3.3h2.4V60h-2Zm9.5-1.9-1.5,3.4h.4l.4-.9h1.8l.4.9h.4l-1.5-3.4Zm-.5,2.1.8-1.7.8,1.7Zm-3.8-.2c.1,0,.2-.1.3-.2s.1-.2.2-.3.1-.2.1-.4h0a.6.6,0,0,0-.1-.4c0-.1-.1-.2-.2-.3a.52.52,0,0,0-.4-.2,1.09,1.09,0,0,0-.5-.1h-1.4v3.3h.4v-1.3h.9l1,1.3h.4l-1-1.4c0,.1.1,0,.3,0m-1.7-.2v-1.4h1a1.42,1.42,0,0,1,.6.2.76.76,0,0,1,.2.5h0a.37.37,0,0,1-.1.3.22.22,0,0,1-.2.2.37.37,0,0,1-.3.1h-.3Zm10.7.2a1.14,1.14,0,0,1-.3.8,1.08,1.08,0,0,1-.7.3.91.91,0,0,1-.7-.3,1.14,1.14,0,0,1-.3-.8v-2H450v2a1.27,1.27,0,0,0,.1.6c.1.2.2.3.3.5s.3.2.4.3a1.85,1.85,0,0,0,1.2,0,1.38,1.38,0,0,0,.4-.3,2.19,2.19,0,0,0,.3-.5,1.27,1.27,0,0,0,.1-.6v-2h-.4Zm6.8-1.5a1.76,1.76,0,0,0-.5-.4,2.5,2.5,0,0,0-1.4,0,2,2,0,0,0-.9.9,1.48,1.48,0,0,0-.1.7h0a2,2,0,0,0,.1.7,2.19,2.19,0,0,0,.3.5,1.76,1.76,0,0,0,.5.4,2.5,2.5,0,0,0,1.4,0,1,1,0,0,0,.5-.4c.1-.2.3-.3.3-.5a1.48,1.48,0,0,0,.1-.7h0a2,2,0,0,0-.1-.7c.1-.1,0-.3-.2-.5m.1,1.3a.75.75,0,0,1-.1.5,1.38,1.38,0,0,1-.3.4c-.1.1-.3.2-.4.3a.9.9,0,0,1-.5.1.75.75,0,0,1-.5-.1,1.38,1.38,0,0,1-.4-.3c-.1-.1-.2-.3-.3-.4a1.09,1.09,0,0,1-.1-.5h0a.75.75,0,0,1,.1-.5,1.38,1.38,0,0,1,.3-.4,1.24,1.24,0,0,1,1.4-.3,1.38,1.38,0,0,1,.4.3c.1.1.2.3.3.4a.75.75,0,0,1,.1.5Z"/><line class="cls-3" x1="393.92" y1="14.48" x2="393.92" y2="75.98"/></svg>